<?xml version="1.0" encoding="iso-8859-1"?>
<!-- Generator: Adobe Illustrator 19.0.0, SVG Export Plug-In . SVG Version: 6.00 Build 0)  -->
<svg version="1.1" id="Capa_1" xmlns="http://www.w3.org/2000/svg" xmlns:xlink="http://www.w3.org/1999/xlink" x="0px" y="0px"
	 viewBox="0 0 425.953 425.953" style="enable-background:new 0 0 425.953 425.953;" xml:space="preserve">
<path style="fill:#FFFFFF;" d="M212.452,369.264c-138.8-45.52-137.52-220.32-135.6-258.24c86.8-6.24,121.92-32,135.6-48
	c13.6,16,48.72,41.92,135.6,48C349.972,148.944,351.252,323.744,212.452,369.264z"/>
<path style="fill:#FCC00F;" d="M167.252,278.704l13.2-13.68c12.085-12.936,19.468-29.56,20.96-47.2
	c-17.666,1.481-34.32,8.864-47.28,20.96l-13.68,13.52v-90.32l13.68,13.52c12.957,12.101,29.612,19.485,47.28,20.96
	c-1.422-17.752-8.809-34.5-20.96-47.52l-13.6-13.68h90.8l-13.2,13.68c-12.085,12.936-19.468,29.56-20.96,47.2
	c17.668-1.475,34.323-8.859,47.28-20.96l13.68-13.52v90.64l-13.68-13.52c-12.96-12.096-29.614-19.479-47.28-20.96
	c1.492,17.64,8.875,34.264,20.96,47.2l13.6,13.68L167.252,278.704z"/>
<path style="fill:#F09052;" d="M209.972,417.184c-182.4-59.2-178.48-288-176-333.04l0.56-7.2l7.04-0.48
	c109.6-7.44,150.16-40,164.56-58.08l6.32-8l6.32,8c14.4,18.56,54.96,50.56,164.56,58.56l7.04,0.48l0.4,7.04
	c2.64,45.2,6.72,273.76-176,333.04l-2.48,0.8L209.972,417.184z M212.532,57.184c-2.16,5.28-21.68,45.84-135.2,52.32
	c0,2.08-19.12,210.8,135.12,259.04c154.24-48,135.36-256.96,135.12-259.12c-113.84-6.48-133.12-47.36-134.96-52L212.532,57.184z"/>
<g>
	<path style="fill:#3A302B;" d="M283.812,142.624c-3.963-0.051-7.366,2.808-8,6.72c-2.72,17.36-19.84,32-43.04,37.28
		c5.52-23.2,19.92-40,37.28-43.04c3.912-0.634,6.771-4.037,6.72-8c0-4.418-3.582-8-8-8h-112.88c-4.418,0-8,3.582-8,8
		c-0.051,3.963,2.808,7.366,6.72,8c17.36,2.72,32,19.84,37.28,43.04c-23.2-5.52-40-19.92-43.04-37.28
		c-0.634-3.912-4.037-6.771-8-6.72c-4.418,0-8,3.582-8,8v113.04c0,4.418,3.582,8,8,8c3.963,0.051,7.366-2.808,8-6.72
		c2.72-17.36,19.84-32,43.04-37.28c-5.52,23.2-19.92,40-37.28,43.04c-3.912,0.634-6.771,4.037-6.72,8c0,4.418,3.582,8,8,8h113.12
		c4.418,0,8-3.582,8-8c0.051-3.963-2.808-7.366-6.72-8c-17.36-2.72-32-19.84-37.28-43.04c23.2,5.52,40,19.92,43.04,37.28
		c0.634,3.912,4.037,6.771,8,6.72c4.418,0,8-3.582,8-8v-113.04c0.002-4.418-3.578-8.002-7.996-8.004
		C283.975,142.621,283.893,142.622,283.812,142.624z M275.812,233.104c-14.256-13.324-32.562-21.491-52-23.2
		c-2.426-0.268-4.842,0.586-6.56,2.32c-1.734,1.718-2.588,4.134-2.32,6.56c1.703,19.439,9.871,37.748,23.2,52h-51.6
		c13.329-14.252,21.497-32.561,23.2-52c0.268-2.426-0.586-4.842-2.32-6.56c-1.718-1.734-4.134-2.588-6.56-2.32
		c-19.438,1.709-37.744,9.876-52,23.2v-52.16c14.252,13.329,32.561,21.497,52,23.2c4.394,0.467,8.333-2.717,8.8-7.111
		c0.06-0.562,0.06-1.128,0-1.689c-1.703-19.439-9.871-37.748-23.2-52h51.84c-13.329,14.252-21.497,32.561-23.2,52
		c-0.467,4.394,2.717,8.333,7.111,8.8c0.562,0.06,1.128,0.06,1.689,0c19.439-1.703,37.748-9.871,52-23.2L275.812,233.104z"/>
	<path style="fill:#3A302B;" d="M390.692,68.944c-149.36-8.4-170.24-63.04-170.24-63.44c-1.38-4.197-5.901-6.482-10.098-5.102
		c-2.415,0.794-4.308,2.687-5.102,5.102c0,0.56-21.76,55.04-170.64,63.52c-3.939,0.218-7.131,3.274-7.52,7.2
		c0,2.8-26.56,283.6,183.36,349.36c1.562,0.491,3.238,0.491,4.8,0c209.92-65.76,184-346.56,183.36-349.36
		C398.241,72.12,394.813,68.969,390.692,68.944L390.692,68.944z M212.452,409.584c-177.36-57.6-172.8-283.04-170.32-324.64
		c113.2-8,155.36-42.4,170.32-61.52c14.96,19.12,57.12,53.52,170.32,61.52C385.252,126.544,389.972,351.904,212.452,409.584
		L212.452,409.584z"/>
	<path style="fill:#3A302B;" d="M348.052,101.664c-112-6.4-128-46.72-128-46.96c-1.081-3.203-4.06-5.381-7.44-5.44
		c-3.564-0.198-6.828,1.989-8,5.36c0,0.4-16,40.72-128,47.12c-3.939,0.218-7.131,3.274-7.52,7.2c0,2.16-20.32,217.12,140.72,267.52
		c1.562,0.491,3.238,0.491,4.8,0c161.28-50.48,141.12-265.44,140.96-267.52C355.221,104.987,352.019,101.887,348.052,101.664z
		 M212.452,360.304c-130.64-42.88-129.44-207.68-128-243.36c81.76-5.92,114.8-30.24,128-45.36c12.8,15.12,45.92,39.44,128,45.36
		C341.892,152.624,343.172,317.424,212.452,360.304z"/>
</g>
<g>
</g>
<g>
</g>
<g>
</g>
<g>
</g>
<g>
</g>
<g>
</g>
<g>
</g>
<g>
</g>
<g>
</g>
<g>
</g>
<g>
</g>
<g>
</g>
<g>
</g>
<g>
</g>
<g>
</g>
</svg>
